<svg xmlns="http://www.w3.org/2000/svg" viewBox="0 0 466.59 270.67"><defs><style>.cls-1{fill:#fff;stroke-width:10px;}.cls-1,.cls-2,.cls-3{stroke:#2da4ff;stroke-miterlimit:10;}.cls-2,.cls-3{fill:#2da4ff;}.cls-2{stroke-width:9px;}.cls-3{stroke-width:2px;}</style></defs><title>미세먼지</title><path d="M84.2 115S98.87 8.33 210.53 5c0 0 67 0 101.67 62 0 0 88.67-32 134.67 48 0 0 43.33 64.67-18.67 150.67H67.53S-9.8 247 7.53 166.33c0 0 19.34-56 76.67-51.33z" class="cls-1"/><path d="M176 133.4c-10.06 10.92 6.92 26.6 17 15.6s-6.9-26.56-17-15.6zM291.6 134.14c-10.07 10.94 6.9 26.6 17 15.64s-6.93-26.6-17-15.64z" class="cls-2"/><path d="M263.35 168.92c4.33 10.13-6.57 16-20 16s-25.17-9.2-20.3-16.24c10.1-7.65 6.85 3.68 20.3 3.68s13.13-9.36 20-3.44z" class="cls-3"/></svg>